<svg width="24" height="24" viewBox="0 0 24 24" fill="none" xmlns="http://www.w3.org/2000/svg">
<path d="M12 17.5C12.3978 17.5 12.7794 17.658 13.0607 17.9393C13.342 18.2206 13.5 18.6022 13.5 19C13.5 19.3978 13.342 19.7794 13.0607 20.0607C12.7794 20.342 12.3978 20.5 12 20.5C11.6022 20.5 11.2206 20.342 10.9393 20.0607C10.658 19.7794 10.5 19.3978 10.5 19C10.5 18.6022 10.658 18.2206 10.9393 17.9393C11.2206 17.658 11.6022 17.5 12 17.5ZM19 17.5C19.3978 17.5 19.7794 17.658 20.0607 17.9393C20.342 18.2206 20.5 18.6022 20.5 19C20.5 19.3978 20.342 19.7794 20.0607 20.0607C19.7794 20.342 19.3978 20.5 19 20.5C18.6022 20.5 18.2206 20.342 17.9393 20.0607C17.658 19.7794 17.5 19.3978 17.5 19C17.5 18.6022 17.658 18.2206 17.9393 17.9393C18.2206 17.658 18.6022 17.5 19 17.5ZM5 17.5C5.39782 17.5 5.77936 17.658 6.06066 17.9393C6.34196 18.2206 6.5 18.6022 6.5 19C6.5 19.3978 6.34196 19.7794 6.06066 20.0607C5.77936 20.342 5.39782 20.5 5 20.5C4.60218 20.5 4.22064 20.342 3.93934 20.0607C3.65804 19.7794 3.5 19.3978 3.5 19C3.5 18.6022 3.65804 18.2206 3.93934 17.9393C4.22064 17.658 4.60218 17.5 5 17.5ZM12 10.5C12.3978 10.5 12.7794 10.658 13.0607 10.9393C13.342 11.2206 13.5 11.6022 13.5 12C13.5 12.3978 13.342 12.7794 13.0607 13.0607C12.7794 13.342 12.3978 13.5 12 13.5C11.6022 13.5 11.2206 13.342 10.9393 13.0607C10.658 12.7794 10.5 12.3978 10.5 12C10.5 11.6022 10.658 11.2206 10.9393 10.9393C11.2206 10.658 11.6022 10.5 12 10.5ZM19 10.5C19.3978 10.5 19.7794 10.658 20.0607 10.9393C20.342 11.2206 20.5 11.6022 20.5 12C20.5 12.3978 20.342 12.7794 20.0607 13.0607C19.7794 13.342 19.3978 13.5 19 13.5C18.6022 13.5 18.2206 13.342 17.9393 13.0607C17.658 12.7794 17.5 12.3978 17.5 12C17.5 11.6022 17.658 11.2206 17.9393 10.9393C18.2206 10.658 18.6022 10.5 19 10.5ZM5 10.5C5.39782 10.5 5.77936 10.658 6.06066 10.9393C6.34196 11.2206 6.5 11.6022 6.5 12C6.5 12.3978 6.34196 12.7794 6.06066 13.0607C5.77936 13.342 5.39782 13.5 5 13.5C4.60218 13.5 4.22064 13.342 3.93934 13.0607C3.65804 12.7794 3.5 12.3978 3.5 12C3.5 11.6022 3.65804 11.2206 3.93934 10.9393C4.22064 10.658 4.60218 10.5 5 10.5ZM12 3.5C12.3978 3.5 12.7794 3.65804 13.0607 3.93934C13.342 4.22064 13.5 4.60218 13.5 5C13.5 5.39782 13.342 5.77936 13.0607 6.06066C12.7794 6.34196 12.3978 6.5 12 6.5C11.6022 6.5 11.2206 6.34196 10.9393 6.06066C10.658 5.77936 10.5 5.39782 10.5 5C10.5 4.60218 10.658 4.22064 10.9393 3.93934C11.2206 3.65804 11.6022 3.5 12 3.5ZM19 3.5C19.3978 3.5 19.7794 3.65804 20.0607 3.93934C20.342 4.22064 20.5 4.60218 20.5 5C20.5 5.39782 20.342 5.77936 20.0607 6.06066C19.7794 6.34196 19.3978 6.5 19 6.5C18.6022 6.5 18.2206 6.34196 17.9393 6.06066C17.658 5.77936 17.5 5.39782 17.5 5C17.5 4.60218 17.658 4.22064 17.9393 3.93934C18.2206 3.65804 18.6022 3.5 19 3.5ZM5 3.5C5.39782 3.5 5.77936 3.65804 6.06066 3.93934C6.34196 4.22064 6.5 4.60218 6.5 5C6.5 5.39782 6.34196 5.77936 6.06066 6.06066C5.77936 6.34196 5.39782 6.5 5 6.5C4.60218 6.5 4.22064 6.34196 3.93934 6.06066C3.65804 5.77936 3.5 5.39782 3.5 5C3.5 4.60218 3.65804 4.22064 3.93934 3.93934C4.22064 3.65804 4.60218 3.5 5 3.5Z" fill="black"/>
</svg>
