<svg  viewBox="0 0 24 24" fill="none" xmlns="http://www.w3.org/2000/svg">
<g clip-path="url(#clip0)">
<path d="M23.5862 2.48279H0.413793C0.185379 2.48279 0 2.66775 0 2.89658V21.1035C0 21.3323 0.185379 21.5173 0.413793 21.5173H23.5862C23.8146 21.5173 24 21.3323 24 21.1035V2.89658C24 2.66775 23.8146 2.48279 23.5862 2.48279ZM23.1724 20.6897H0.827586V3.31037H23.1724V20.6897Z" fill="none" stroke="none" stroke-width="0.3"/>
<path d="M6.62082 11.6434C7.89158 11.6434 8.92523 10.6097 8.92523 9.33937C8.92523 8.0682 7.89158 7.03455 6.62082 7.03455C5.35006 7.03455 4.31641 8.0682 4.31641 9.33896C4.31641 10.6097 5.35006 11.6434 6.62082 11.6434ZM6.62082 7.86213C7.43517 7.86213 8.09765 8.52503 8.09765 9.33896C8.09765 10.1529 7.43517 10.8158 6.62082 10.8158C5.80648 10.8158 5.14399 10.1533 5.14399 9.33937C5.14399 8.52544 5.80648 7.86213 6.62082 7.86213Z" fill="none" stroke="none" stroke-width="0.3"/>
<path d="M2.89741 19.0345C2.99424 19.0345 3.09189 19.0006 3.17051 18.9315L9.92072 12.9886L14.1836 17.2511C14.3454 17.4129 14.6069 17.4129 14.7687 17.2511C14.9305 17.0893 14.9305 16.8278 14.7687 16.666L12.7796 14.6769L16.5787 10.5166L21.2384 14.7882C21.4068 14.9425 21.6687 14.9309 21.8231 14.7625C21.9774 14.5941 21.9662 14.3322 21.7974 14.1778L16.8319 9.62611C16.7508 9.55204 16.6428 9.51521 16.534 9.5177C16.4243 9.52266 16.3209 9.57108 16.2468 9.65218L12.1941 14.0909L10.2315 12.1283C10.0767 11.974 9.82927 11.9661 9.66541 12.1101L2.62389 18.31C2.45217 18.461 2.43562 18.7225 2.58665 18.8942C2.66858 18.9873 2.78279 19.0345 2.89741 19.0345Z" fill="none" stroke="none" stroke-width="0.3"/>
</g>
<defs>
<clipPath id="clip0">
<rect width="24" height="24" fill="white"/>
</clipPath>
</defs>
</svg>
