<svg width="21" height="21" viewBox="0 0 21 21" fill="none" xmlns="http://www.w3.org/2000/svg">
<path d="M20.6379 2.17236H0.362069C0.162207 2.17236 0 2.33421 0 2.53443V18.4655C0 18.6657 0.162207 18.8275 0.362069 18.8275H20.6379C20.8378 18.8275 21 18.6657 21 18.4655V2.53443C21 2.33421 20.8378 2.17236 20.6379 2.17236ZM20.2759 18.1034H0.724138V2.8965H20.2759V18.1034Z" fill="black"/>
<path d="M5.79332 10.1878C6.90524 10.1878 7.80968 9.28331 7.80968 8.17175C7.80968 7.05948 6.90524 6.15503 5.79332 6.15503C4.68141 6.15503 3.77696 7.05948 3.77696 8.17139C3.77696 9.28331 4.68141 10.1878 5.79332 10.1878ZM5.79332 6.87917C6.50587 6.87917 7.08555 7.4592 7.08555 8.17139C7.08555 8.88358 6.50587 9.46362 5.79332 9.46362C5.08077 9.46362 4.5011 8.88394 4.5011 8.17175C4.5011 7.45956 5.08077 6.87917 5.79332 6.87917Z" fill="black"/>
<path d="M2.53483 16.6552C2.61956 16.6552 2.70501 16.6255 2.7738 16.5651L8.68023 11.365L12.4103 15.0947C12.5518 15.2363 12.7807 15.2363 12.9222 15.0947C13.0638 14.9531 13.0638 14.7243 12.9222 14.5827L11.1818 12.8423L14.5059 9.20202L18.5832 12.9397C18.7305 13.0747 18.9597 13.0646 19.0948 12.9172C19.2298 12.7698 19.2201 12.5407 19.0723 12.4056L14.7275 8.42285C14.6565 8.35804 14.562 8.32581 14.4668 8.32798C14.3709 8.33233 14.2804 8.37469 14.2155 8.44566L10.6694 12.3296L8.95214 10.6123C8.81673 10.4772 8.60021 10.4703 8.45683 10.5963L2.29551 16.0212C2.14525 16.1534 2.13076 16.3822 2.26292 16.5325C2.33461 16.6139 2.43454 16.6552 2.53483 16.6552Z" fill="black"/>
</svg>
