<svg fill="currentColor" width="36" height="36" xmlns="http://www.w3.org/2000/svg">
	<path
		d="M29.2002 26.72C26.5951 26.6906 24.0695 25.8191 22.0006 24.2357C19.9318 22.6522 18.4308 20.4419 17.7219 17.935C17.013 15.428 17.1343 12.759 18.0676 10.3266C19.001 7.89429 20.6963 5.82924 22.9002 4.44C21.7866 4.15051 20.6409 4.00267 19.4902 4C15.7772 4 12.2162 5.475 9.59074 8.1005C6.96523 10.726 5.49023 14.287 5.49023 18C5.49023 21.713 6.96523 25.274 9.59074 27.8995C12.2162 30.525 15.7772 32 19.4902 32C21.5937 31.9981 23.6689 31.5161 25.5579 30.5907C27.4468 29.6653 29.0996 28.3209 30.3902 26.66C29.9948 26.7002 29.5977 26.7202 29.2002 26.72V26.72Z"
		fill="#080808" />
</svg>