<svg fill="currentColor" width="18" height="22" xmlns="http://www.w3.org/2000/svg">
<path d="M17.1 22C16.8613 22 16.6324 21.9034 16.4636 21.7315C16.2948 21.5596 16.2 21.3264 16.2 21.0833L16.2 13.267L3.10669 21.2489C2.80427 21.4363 2.45799 21.5375 2.10404 21.5419C1.7501 21.5463 1.40148 21.4538 1.09463 21.2741C0.419626 20.8845 1.63631e-07 20.1283 2.35404e-07 19.3073L1.6879e-06 2.69271C1.75987e-06 1.86942 0.419627 1.11547 1.09463 0.725884C1.40155 0.546297 1.75019 0.453946 2.10412 0.458481C2.45806 0.463016 2.8043 0.564269 3.10669 0.751664L16.2 8.73297L16.2 0.916666C16.2 0.673551 16.2948 0.440392 16.4636 0.268484C16.6324 0.0965756 16.8613 -9.95479e-08 17.1 -7.86805e-08C17.3387 -5.78131e-08 17.5676 0.0965757 17.7364 0.268484C17.9052 0.440392 18 0.673551 18 0.916666L18 21.0833C18 21.3264 17.9052 21.5596 17.7364 21.7315C17.5676 21.9034 17.3387 22 17.1 22V22Z" fill="white"/>
</svg>
