<svg width="18" height="22" viewBox="0 0 18 22" fill="none"
    xmlns="http://www.w3.org/2000/svg">
    <path d="M0.9 0C1.13869 0 1.36761 0.0965773 1.5364 0.268486C1.70518 0.440394 1.8 0.673552 1.8 0.916667V8.73297L14.8933 0.751094C15.1957 0.563729 15.542 0.462541 15.896 0.458106C16.2499 0.453672 16.5985 0.546153 16.9054 0.725885C17.5804 1.11547 18 1.87172 18 2.69271V19.3073C18 20.1306 17.5804 20.8845 16.9054 21.2741C16.5985 21.4537 16.2498 21.5461 15.8959 21.5415C15.5419 21.537 15.1957 21.4357 14.8933 21.2483L1.8 13.267V21.0833C1.8 21.3264 1.70518 21.5596 1.5364 21.7315C1.36761 21.9034 1.13869 22 0.9 22C0.661305 22 0.432387 21.9034 0.263604 21.7315C0.0948213 21.5596 0 21.3264 0 21.0833V0.916667C0 0.673552 0.0948213 0.440394 0.263604 0.268486C0.432387 0.0965773 0.661305 0 0.9 0V0Z" fill="#f9fafc" />
</svg>