<svg fill="currentColor" width="16" height="16" xmlns="http://www.w3.org/2000/svg">
	<g clip-path="url(#clip0)">
		<path
			d="M5.71004 1C6.80235 0.999974 7.87177 1.31314 8.79142 1.90234C9.71099 2.49154 10.4422 3.33204 10.8983 4.32413C11.3544 5.31621 11.5161 6.41826 11.3644 7.49947C11.2126 8.58069 10.7539 9.5957 10.0423 10.4241L15 15.3793L14.379 16L9.42042 11.0439C8.72106 11.6416 7.88758 12.0615 6.99094 12.268C6.09421 12.4744 5.1609 12.4611 4.27046 12.2292C3.38001 11.9975 2.55881 11.554 1.87679 10.9366C1.19478 10.3192 0.672162 9.54618 0.353446 8.68341C0.0347298 7.82063 -0.0706481 6.89368 0.0463068 5.98145C0.163253 5.06921 0.499053 4.19874 1.02512 3.44416C1.55117 2.68959 2.2519 2.07327 3.06763 1.64771C3.88334 1.22214 4.78988 0.99993 5.71004 1ZM5.71004 1.87796C4.42872 1.87796 3.19989 2.38671 2.29386 3.29228C1.38784 4.19786 0.878843 5.42608 0.878843 6.70676C0.878843 7.98745 1.38784 9.21563 2.29386 10.1212C3.19989 11.0268 4.42872 11.5356 5.71004 11.5356C6.99138 11.5356 8.22022 11.0268 9.12617 10.1212C10.0322 9.21563 10.5412 7.98745 10.5412 6.70676C10.5412 5.42608 10.0322 4.19786 9.12617 3.29228C8.22022 2.38671 6.99138 1.87796 5.71004 1.87796Z"
			fill="#454545" stroke="currentColor" stroke-width="0.5" />
	</g>
</svg>