<svg width="24" height="24" viewBox="0 0 24 24" fill="none" xmlns="http://www.w3.org/2000/svg">
<path d="M17.95 16.95L21.25 1C21.25 1 15.475 2.1 15.475 4.3C15.475 5.675 17.675 6.5 16.85 7.325C16.025 8.15 13 8.975 13 11.175C13 12.55 13.902 13.573 13 14.475C12.175 15.3 11.35 14.8677 9.975 14.475C8.435 14.035 5.3 13.65 4.2 13.925C3.1 14.2 2 14.75 2 16.4C2 17.3075 2.55 18.325 3.925 18.6C5.3 18.875 6.95 17.5 9.15 17.5C11.35 17.5 14.1 19.15 15.75 19.15C17.4 19.15 17.95 16.95 17.95 16.95Z" stroke="black" stroke-width="0.8" stroke-linejoin="round"/>
<path d="M4.20005 18.6001L2.55005 23.0001H20.7L17.4 18.6001" stroke="black" stroke-width="0.8" stroke-linejoin="round"/>
</svg>
