<svg fill="currentColor" width="29" height="29" xmlns="http://www.w3.org/2000/svg">
	<path
		d="M22.0885 10.1137C21.8867 9.86377 21.5937 9.70425 21.2742 9.67025C20.9547 9.63626 20.6348 9.73059 20.3848 9.93249C20.1348 10.1344 19.9753 10.4273 19.9413 10.7468C19.9073 11.0663 20.0017 11.3863 20.2035 11.6362C20.814 12.4663 21.1433 13.4696 21.1433 14.5C21.1433 15.5303 20.814 16.5337 20.2035 17.3637C20.0595 17.5413 19.9688 17.7561 19.9419 17.9832C19.9151 18.2103 19.9533 18.4403 20.052 18.6466C20.1507 18.8528 20.3059 19.0269 20.4995 19.1484C20.6932 19.27 20.9174 19.3341 21.146 19.3333C21.3266 19.3339 21.5049 19.2941 21.668 19.2167C21.8311 19.1394 21.9748 19.0264 22.0885 18.8862C23.047 17.6248 23.5659 16.0842 23.5659 14.5C23.5659 12.9158 23.047 11.3751 22.0885 10.1137Z"
		fill="white" />
	<path
		d="M23.7313 6.31962C23.6092 6.21807 23.4682 6.14157 23.3164 6.09451C23.1647 6.04744 23.0051 6.03072 22.8469 6.04531C22.6887 6.05989 22.5349 6.1055 22.3944 6.17952C22.2538 6.25354 22.1291 6.35452 22.0276 6.47671C21.926 6.59889 21.8495 6.73988 21.8025 6.89163C21.7554 7.04338 21.7387 7.20291 21.7533 7.36111C21.7679 7.51932 21.8135 7.67311 21.8875 7.81369C21.9615 7.95427 22.0625 8.0789 22.1847 8.18046C23.1538 8.92947 23.9432 9.88567 24.4951 10.9791C25.0471 12.0725 25.3476 13.2755 25.3747 14.5C25.3476 15.7246 25.0471 16.9276 24.4951 18.021C23.9432 19.1144 23.1538 20.0706 22.1847 20.8196C22.0623 20.9211 21.9612 21.0456 21.887 21.1862C21.8129 21.3268 21.7672 21.4806 21.7526 21.6389C21.7381 21.7972 21.7548 21.9568 21.802 22.1085C21.8492 22.2603 21.9258 22.4013 22.0276 22.5234C22.1412 22.6598 22.2835 22.7695 22.4443 22.8447C22.6051 22.9198 22.7805 22.9587 22.958 22.9584C23.2403 22.9589 23.5139 22.8606 23.7313 22.6805C24.9765 21.7071 25.9875 20.4669 26.6901 19.0512C27.3927 17.6355 27.769 16.0803 27.7913 14.5C27.769 12.9197 27.3927 11.3646 26.6901 9.94887C25.9875 8.53318 24.9765 7.29303 23.7313 6.31962ZM17.4843 3.77004C17.3006 3.66399 17.0922 3.60815 16.8801 3.60815C16.668 3.60815 16.4596 3.66399 16.2759 3.77004L8.45801 9.14712H2.41634C2.09587 9.14712 1.78853 9.27443 1.56192 9.50104C1.33531 9.72764 1.20801 10.035 1.20801 10.3555V18.6446C1.20801 18.9651 1.33531 19.2724 1.56192 19.499C1.78853 19.7257 2.09587 19.853 2.41634 19.853H8.45801L16.2034 25.1696C16.4156 25.3069 16.6636 25.3784 16.9163 25.375C17.2368 25.375 17.5442 25.2477 17.7708 25.0211C17.9974 24.7945 18.1247 24.4872 18.1247 24.1667V4.83337C18.1241 4.61478 18.0642 4.40044 17.9514 4.21319C17.8387 4.02593 17.6772 3.87278 17.4843 3.77004Z"
		fill="white" />
</svg>