<svg fill="currentColor" width="24" height="24" xmlns="http://www.w3.org/2000/svg">
	<path
		d="M18 19C18 19.7956 17.6839 20.5587 17.1213 21.1213C16.5587 21.6839 15.7956 22 15 22H8C7.20435 22 6.44129 21.6839 5.87868 21.1213C5.31607 20.5587 5 19.7956 5 19V7H4V4H8.5L9.5 3H13.5L14.5 4H19V7H18V19ZM6 7V19C6 19.5304 6.21071 20.0391 6.58579 20.4142C6.96086 20.7893 7.46957 21 8 21H15C15.5304 21 16.0391 20.7893 16.4142 20.4142C16.7893 20.0391 17 19.5304 17 19V7H6ZM18 6V5H14L13 4H10L9 5H5V6H18ZM8 9H9V19H8V9ZM14 9H15V19H14V9Z"
		fill="currentColor" />
</svg>