<svg fill="currentColor" width="24" height="24" xmlns="http://www.w3.org/2000/svg">
<path d="M11.4997 6C15.4887 6 18.9577 8.224 20.7347 11.5C19.8338 13.1639 18.5001 14.5534 16.8745 15.5216C15.2488 16.4897 13.3917 17.0006 11.4996 17C9.60755 17.0006 7.75048 16.4897 6.12485 15.5216C4.49921 14.5534 3.16546 13.1639 2.26465 11.5C3.16546 9.8361 4.49921 8.44658 6.12485 7.47842C7.75048 6.51026 9.60756 5.99944 11.4997 6ZM11.4996 18C13.6631 18.0007 15.7828 17.3912 17.6154 16.2414C19.448 15.0916 20.919 13.4482 21.8597 11.5C20.919 9.55178 19.448 7.90838 17.6154 6.7586C15.7828 5.60882 13.6631 4.99928 11.4997 5C9.33624 4.99928 7.2165 5.60882 5.38393 6.7586C3.55135 7.90838 2.08026 9.55177 1.13965 11.5C2.08026 13.4482 3.55135 15.0916 5.38392 16.2414C7.2165 17.3912 9.33624 18.0007 11.4996 18ZM11.4996 16C12.6931 16 13.8377 15.5259 14.6816 14.682C15.5255 13.8381 15.9996 12.6935 15.9996 11.5C15.9996 10.3065 15.5255 9.16194 14.6816 8.31802C13.8377 7.47411 12.6931 7 11.4997 7C10.3062 7 9.16158 7.47411 8.31767 8.31802C7.47376 9.16193 6.99965 10.3065 6.99965 11.5C6.99965 12.6935 7.47376 13.8381 8.31767 14.682C9.16158 15.5259 10.3062 16 11.4996 16ZM11.4996 15C10.5714 15 9.68115 14.6313 9.02478 13.9749C8.3684 13.3185 7.99965 12.4283 7.99965 11.5C7.99965 10.5717 8.3684 9.6815 9.02478 9.02513C9.68115 8.36875 10.5714 8 11.4996 8C12.4279 8 13.3181 8.36875 13.9745 9.02513C14.6309 9.68151 14.9996 10.5717 14.9996 11.5C14.9996 12.4283 14.6309 13.3185 13.9745 13.9749C13.3181 14.6313 12.4279 15 11.4996 15Z" fill="#090909"/>
</svg>
