<svg width="24" height="24" viewBox="0 0 24 24" fill="none" xmlns="http://www.w3.org/2000/svg">
<path d="M6 16C7.1 16 8 16.9 8 18C8 19.1 7.1 20 6 20C4.9 20 4 19.1 4 18C4 16.9 4.9 16 6 16ZM6 10C7.1 10 8 10.9 8 12C8 13.1 7.1 14 6 14C4.9 14 4 13.1 4 12C4 10.9 4.9 10 6 10ZM6 4C7.1 4 8 4.9 8 6C8 7.1 7.1 8 6 8C4.9 8 4 7.1 4 6C4 4.9 4.9 4 6 4Z" fill="#090909"/>
<rect x="10" y="4" width="10" height="4" rx="2" fill="#090909"/>
<rect x="10" y="10" width="10" height="4" rx="2" fill="#090909"/>
<rect x="10" y="16" width="10" height="4" rx="2" fill="#090909"/>
</svg>
